<svg width="90" height="46" viewBox="0 0 90 46" fill="none" xmlns="http://www.w3.org/2000/svg">
<g clip-path="url(#clip0_1_730)">
<path d="M10.9432 27.3146C14.8526 30.7327 26.4066 36.4376 26.5934 36.5247C28.0999 37.258 25.7343 40.85 24.5515 40.8251C22.4847 40.8251 10.0717 33.3677 5.87586 29.6388C5.55216 32.4313 5.4356 35.2438 5.52722 38.0534C5.52722 38.9856 4.03319 39.0104 2.58894 39.0975C1.1447 39.1844 0.0988698 39.0975 0.0241672 38.3641C-0.436497 23.8842 5.73888 9.5036 14.2425 2.60542C19.4965 -1.65779 28.4857 -1.03634 27.1535 7.06748C26.0455 13.7668 19.5464 23.0514 10.968 27.3146H10.9432ZM6.94658 24.1949C16.3715 21.0627 24.9374 7.25392 22.1983 4.89238C19.4592 2.53084 10.3455 10.9329 6.94658 24.1949ZM88.1606 15.83C87.0025 15.4199 85.3966 15.395 85.1846 16.3769C83.7528 22.8153 81.2752 29.875 78.3744 28.9801C77.1293 28.5824 76.3326 27.2152 79.0468 18.9125C79.3458 17.9803 78.6362 17.5328 77.5778 17.1351C76.5193 16.7374 75.324 16.9238 75.0875 17.5825C72.1866 24.7169 69.8708 28.7688 67.7791 28.3586C65.4385 27.8864 68.9619 20.4785 69.4848 19.4096C70.0078 18.3407 68.6258 17.7938 67.941 17.5204C67.2563 17.247 66.1357 16.7746 65.7498 17.5204C65.6003 17.769 65.2642 18.4526 65.065 18.8504C65.177 15.9046 62.3508 14.2142 59.3378 15.5193C53.8472 17.9057 50.8965 23.9712 50.5229 27.5508C50.2988 29.6513 50.8467 32.0128 52.9383 33.0071C56.8602 34.8591 61.168 30.1733 62.3508 27.7123C62.2263 30.6581 64.1312 32.4727 66.5466 32.3857C69.8459 32.2738 72.224 29.0547 72.8963 27.6254C72.3733 32.4851 76.9924 34.3371 80.3663 31.9756C78.3699 35.8243 75.8566 39.3828 72.8963 42.5527C72.0496 43.4849 73.22 44.6533 73.6434 45.0386C74.3405 45.7222 75.3612 46.2816 75.9593 45.8465C77.7645 44.6036 81.3131 40.6511 85.2598 32.9077C87.4361 28.2377 89.0048 23.3089 89.9286 18.2413C90.1778 16.9984 89.8163 16.3894 88.2104 15.83H88.1606ZM55.8393 28.4333C54.8308 27.7248 55.8393 24.6175 57.0096 22.778C58.6282 20.1057 61.1182 18.1294 62.189 18.9746C63.8449 20.2175 61.554 23.5113 60.3836 25.4626C59.2133 27.414 57.1466 29.353 55.8393 28.4333ZM42.2932 25.3011C38.4834 31.6027 33.578 33.5665 30.179 33.6659C29.169 33.7148 28.1603 33.5465 27.2212 33.1725C26.282 32.7984 25.4344 32.2272 24.7355 31.4978C24.0366 30.7682 23.5029 29.8974 23.1704 28.9441C22.8379 27.9908 22.7144 26.9773 22.8084 25.9723C22.9614 23.7117 23.741 21.538 25.0602 19.6943C26.3794 17.8506 28.1861 16.4094 30.2786 15.5317C34.4246 13.9905 38.197 17.0108 37.3878 20.5034C37.182 21.539 36.7715 22.5232 36.1804 23.3984C35.5892 24.2738 34.8291 25.0227 33.9447 25.6013C33.0601 26.1799 32.0689 26.5767 31.029 26.7684C29.9891 26.9602 28.9213 26.943 27.8882 26.718C28.0998 29.2038 30.7642 30.5835 34.5242 28.657C37.0143 27.4141 39.7782 24.9282 42.3928 18.639C44.335 13.916 47.0991 4.20878 48.3316 2.05853C48.6928 1.43707 49.9751 1.61109 51.0708 2.14554C52.1664 2.68 53.2869 3.45058 52.9383 4.42006C50.666 10.1498 48.9199 16.074 47.7216 22.1192C46.7407 27.0568 46.864 32.1497 48.0826 37.0342C48.3566 38.0659 47.0493 38.7122 46.2525 38.8737C45.7715 39.0164 45.2577 39.0043 44.784 38.8392C44.3103 38.6741 43.9006 38.3644 43.613 37.954C41.5462 34.2253 41.7703 29.6388 42.2559 25.326L42.2932 25.3011ZM27.801 23.909C31.6357 25.1519 35.0346 20.9633 33.8518 19.2605C32.669 17.5577 28.3115 19.4345 27.801 23.909Z" fill="#D5E27B"/>
</g>
<defs>
<clipPath id="clip0_1_730">
<rect width="90" height="46" fill="white"/>
</clipPath>
</defs>
</svg>
