<svg width="85" height="62" viewBox="0 0 85 62" fill="none" xmlns="http://www.w3.org/2000/svg">
<path d="M10.3352 36.003C14.0275 40.7585 24.9396 48.6958 25.116 48.8169C26.5388 49.8372 24.3046 54.8348 23.1875 54.8002C21.2355 54.8002 9.51213 44.4246 5.54943 39.2366C5.24371 43.1219 5.13362 47.0348 5.22015 50.9439C5.22015 52.2408 3.80912 52.2754 2.44511 52.3965C1.0811 52.5175 0.0933771 52.3965 0.0228246 51.3762C-0.412247 31.2301 5.42005 11.2224 13.4512 1.62493C18.4134 -4.30649 26.9032 -3.44186 25.645 7.83302C24.5985 17.1539 18.4605 30.0715 10.3587 36.003H10.3352ZM6.56066 31.6624C15.462 27.3047 23.552 8.09241 20.9651 4.80679C18.3781 1.52116 9.77079 13.211 6.56066 31.6624ZM83.2628 20.0244C82.169 19.4537 80.6524 19.4191 80.4521 20.7852C79.0999 29.743 76.7599 39.5652 74.0203 38.3202C72.8443 37.7668 72.0919 35.8646 74.6553 24.313C74.9377 23.016 74.2675 22.3935 73.2679 21.8402C72.2683 21.2868 71.1394 21.5462 70.916 22.4627C68.1763 32.3887 65.9891 38.0262 64.0136 37.4555C61.803 36.7984 65.1307 26.4919 65.6246 25.0047C66.1185 23.5175 64.8133 22.7566 64.1665 22.3763C63.5198 21.9958 62.4615 21.3386 62.097 22.3763C61.9559 22.7221 61.6384 23.6732 61.4503 24.2266C61.5561 20.1282 58.8869 17.7763 56.0413 19.592C50.8557 22.9123 48.0689 31.3512 47.7161 36.3316C47.5045 39.254 48.0218 42.5396 49.9973 43.923C53.7013 46.4996 57.7698 39.9803 58.8869 36.5563C58.7693 40.6548 60.5684 43.1795 62.8496 43.0584C65.9656 42.9027 68.2115 38.4239 68.8465 36.4353C68.3526 43.1967 72.715 45.7733 75.9015 42.4877C74.016 47.8425 71.6424 52.7935 68.8465 57.2038C68.0469 58.5007 69.1522 60.1263 69.5521 60.6624C70.2105 61.6135 71.1745 62.3917 71.7393 61.7864C73.4442 60.0572 76.7957 54.558 80.5231 43.7847C82.5786 37.2872 84.0601 30.4297 84.9326 23.3792C85.1679 21.65 84.8265 20.8026 83.3098 20.0244H83.2628ZM52.7371 37.5593C51.7847 36.5736 52.7371 32.2504 53.8424 29.6911C55.371 25.9732 57.7227 23.2235 58.734 24.3995C60.2979 26.1287 58.1343 30.7113 57.029 33.4263C55.9237 36.1412 53.9718 38.8389 52.7371 37.5593ZM39.9436 33.2015C36.3454 41.9689 31.7125 44.7012 28.5024 44.8395C27.5485 44.9076 26.5959 44.6733 25.7089 44.153C24.8219 43.6325 24.0214 42.8379 23.3613 41.823C22.7013 40.8079 22.1972 39.5964 21.8831 38.27C21.5691 36.9437 21.4525 35.5336 21.5412 34.1353C21.6857 30.9901 22.4221 27.9659 23.668 25.4008C24.9139 22.8356 26.6202 20.8304 28.5965 19.6094C32.5121 17.4651 36.075 21.6672 35.3107 26.5264C35.1164 27.9673 34.7287 29.3366 34.1704 30.5543C33.612 31.7722 32.8942 32.8141 32.0588 33.6192C31.2235 34.4243 30.2873 34.9763 29.3052 35.243C28.3231 35.5099 27.3146 35.4859 26.3388 35.1728C26.5387 38.6314 29.0551 40.5509 32.6062 37.8705C34.958 36.1413 37.5683 32.6827 40.0377 23.9326C41.872 17.3613 44.4825 3.85569 45.6465 0.864039C45.9876 -0.000601292 47.1987 0.241515 48.2335 0.985102C49.2682 1.72869 50.3265 2.80081 49.9973 4.14965C47.8512 12.1215 46.2021 20.3638 45.0704 28.7746C44.144 35.6443 44.2604 42.73 45.4114 49.5259C45.6701 50.9612 44.4355 51.8604 43.6829 52.0852C43.2286 52.2837 42.7434 52.2668 42.296 52.0372C41.8486 51.8075 41.4617 51.3766 41.19 50.8056C39.2381 45.6177 39.4497 39.2366 39.9083 33.2361L39.9436 33.2015ZM26.2565 31.2647C29.8781 32.994 33.0883 27.1663 31.9712 24.7972C30.8541 22.4281 26.7386 25.0393 26.2565 31.2647Z" fill="#004822"/>
</svg>
