<svg width="26" height="26" viewBox="0 0 26 26" fill="none" xmlns="http://www.w3.org/2000/svg">
<path d="M25.9992 12.9999C25.9927 16.1761 24.8271 19.2406 22.7211 21.6181C20.6152 23.9957 17.7138 25.5227 14.5616 25.9124C14.4913 25.9194 14.4203 25.9116 14.3531 25.8898C14.2859 25.8679 14.2239 25.8324 14.1711 25.7854C14.1182 25.7385 14.0757 25.6811 14.0461 25.6169C14.0165 25.5527 14.0005 25.4831 13.9991 25.4124V15.9999H16.9991C17.1359 16.0002 17.2713 15.9724 17.3968 15.9183C17.5224 15.8642 17.6356 15.7849 17.7293 15.6853C17.823 15.5857 17.8953 15.468 17.9417 15.3394C17.9882 15.2107 18.0077 15.0739 17.9991 14.9374C17.977 14.6789 17.8576 14.4383 17.6651 14.2643C17.4725 14.0903 17.2211 13.9958 16.9616 13.9999H13.9991V10.9999C13.9991 10.4695 14.2099 9.9608 14.5849 9.5857C14.96 9.2107 15.4687 8.9999 15.9991 8.9999H17.9991C18.1359 9.0002 18.2713 8.9724 18.3968 8.9183C18.5224 8.8642 18.6356 8.7849 18.7293 8.6853C18.823 8.5857 18.8953 8.468 18.9417 8.3394C18.9882 8.2107 19.0077 8.0739 18.9991 7.9374C18.977 7.6789 18.8576 7.4383 18.6651 7.2643C18.4725 7.0903 18.2211 6.99584 17.9616 6.99995H15.9991C14.9383 6.99995 13.9209 7.4214 13.1707 8.1715C12.4206 8.9217 11.9991 9.9391 11.9991 10.9999V13.9999H8.9991C8.8624 13.9997 8.727 14.0275 8.6015 14.0816C8.4759 14.1357 8.3627 14.215 8.269 14.3146C8.1753 14.4142 8.103 14.5319 8.0566 14.6605C8.0101 14.7892 7.9906 14.926 7.9991 15.0624C8.0213 15.321 8.1407 15.5616 8.3332 15.7356C8.5258 15.9096 8.7772 16.0041 9.0366 15.9999H11.9991V25.4124C11.9995 25.4825 11.9851 25.5519 11.9569 25.6161C11.9287 25.6803 11.8874 25.7378 11.8355 25.7849C11.7836 25.8321 11.7224 25.8678 11.6559 25.8898C11.5893 25.9117 11.5189 25.9195 11.4491 25.9124C4.84915 25.1124 -0.250852 19.3749 0.0116478 12.5124C0.158998 9.1234 1.62521 5.92624 4.09732 3.60333C6.56942 1.28042 9.8516 0.0158083 13.2432 0.0794383C16.6348 0.143058 19.8673 1.52988 22.2505 3.94387C24.6337 6.35785 25.979 9.6078 25.9992 12.9999Z" fill="#D5E27B"/>
</svg>
