<svg width="26" height="26" viewBox="0 0 26 26" fill="none" xmlns="http://www.w3.org/2000/svg">
<path d="M23.5 0.5H2.5C1.96957 0.5 1.46086 0.71071 1.08579 1.08579C0.71071 1.46086 0.5 1.96957 0.5 2.5V23.5C0.5 24.0304 0.71071 24.5391 1.08579 24.9142C1.46086 25.2893 1.96957 25.5 2.5 25.5H23.5C24.0304 25.5 24.5391 25.2893 24.9142 24.9142C25.2893 24.5391 25.5 24.0304 25.5 23.5V2.5C25.5 1.96957 25.2893 1.46086 24.9142 1.08579C24.5391 0.71071 24.0304 0.5 23.5 0.5ZM9 19C9 19.2652 8.8946 19.5196 8.7071 19.7071C8.5196 19.8946 8.2652 20 8 20C7.7348 20 7.4804 19.8946 7.2929 19.7071C7.1054 19.5196 7 19.2652 7 19V11C7 10.7348 7.1054 10.4804 7.2929 10.2929C7.4804 10.1054 7.7348 10 8 10C8.2652 10 8.5196 10.1054 8.7071 10.2929C8.8946 10.4804 9 10.7348 9 11V19ZM8 8.5C7.7033 8.5 7.4133 8.412 7.1666 8.2472C6.91997 8.0824 6.72771 7.8481 6.61418 7.574C6.50065 7.2999 6.47094 6.99834 6.52882 6.70736C6.5867 6.41639 6.72956 6.14912 6.93934 5.93934C7.1491 5.72956 7.4164 5.5867 7.7074 5.52882C7.9983 5.47094 8.2999 5.50065 8.574 5.61418C8.8481 5.72771 9.0824 5.91997 9.2472 6.16665C9.412 6.41332 9.5 6.70333 9.5 7C9.5 7.3978 9.342 7.7794 9.0607 8.0607C8.7794 8.342 8.3978 8.5 8 8.5ZM20 19C20 19.2652 19.8946 19.5196 19.7071 19.7071C19.5196 19.8946 19.2652 20 19 20C18.7348 20 18.4804 19.8946 18.2929 19.7071C18.1054 19.5196 18 19.2652 18 19V14.5C18 13.837 17.7366 13.2011 17.2678 12.7322C16.7989 12.2634 16.163 12 15.5 12C14.837 12 14.2011 12.2634 13.7322 12.7322C13.2634 13.2011 13 13.837 13 14.5V19C13 19.2652 12.8946 19.5196 12.7071 19.7071C12.5196 19.8946 12.2652 20 12 20C11.7348 20 11.4804 19.8946 11.2929 19.7071C11.1054 19.5196 11 19.2652 11 19V11C10.9993 10.7539 11.0894 10.5162 11.253 10.3324C11.4166 10.1485 11.6423 10.0315 11.8868 10.0036C12.1313 9.9758 12.3775 10.039 12.5783 10.1814C12.7791 10.3237 12.9203 10.535 12.975 10.775C13.6516 10.3163 14.4405 10.0506 15.2567 10.0064C16.073 9.9622 16.8859 10.1412 17.6081 10.5242C18.3303 10.9071 18.9346 11.4796 19.356 12.18C19.7774 12.8805 20 13.6825 20 14.5V19Z" fill="#D5E27B"/>
</svg>
