<svg width="28" height="24" viewBox="0 0 28 24" fill="none" xmlns="http://www.w3.org/2000/svg">
<path d="M27.7128 4.71262L23.9378 8.4751C23.1878 17.2126 15.8128 24.0001 7.0003 24.0001C5.18783 24.0001 3.68783 23.7126 2.55033 23.1501C1.63783 22.6876 1.26283 22.2001 1.16283 22.0501C1.08009 21.9244 1.02678 21.7817 1.00686 21.6326C0.986943 21.4835 1.00093 21.3318 1.04779 21.1888C1.09465 21.0458 1.17317 20.9152 1.27749 20.8068C1.38182 20.6984 1.50926 20.6149 1.65033 20.5626C1.67533 20.5501 4.62533 19.4251 6.53783 17.2626C5.35176 16.4181 4.30927 15.3883 3.45033 14.2126C1.73783 11.8876 -0.0746672 7.8501 1.01283 1.82512C1.04702 1.646 1.12894 1.47944 1.24995 1.34303C1.37097 1.20662 1.52657 1.10542 1.70033 1.05012C1.87465 0.993037 2.06131 0.984997 2.23989 1.02689C2.41846 1.06878 2.58208 1.15898 2.71283 1.28762C2.75033 1.33762 6.91283 5.4376 12.0003 6.7626V6.0001C12.0052 5.2073 12.1663 4.42313 12.4742 3.6925C12.7822 2.96188 13.231 2.29906 13.7952 1.74191C14.3593 1.18475 15.0276 0.744167 15.762 0.445307C16.4964 0.146447 17.2825 -0.0048228 18.0753 0.000117201C19.1159 0.0149572 20.135 0.299087 21.0331 0.824837C21.9313 1.35059 22.6779 2.10002 23.2003 3.00012H27.0003C27.1978 2.9995 27.3909 3.05733 27.5556 3.16633C27.7202 3.27533 27.8488 3.43062 27.9253 3.61262C27.9974 3.79733 28.0157 3.99866 27.9781 4.19333C27.9404 4.38799 27.8485 4.56803 27.7128 4.71262Z" fill="#D5E27B"/>
</svg>
