<svg width="28" height="22" viewBox="0 0 28 22" fill="none" xmlns="http://www.w3.org/2000/svg">
<path d="M27.2875 3.72481C27.1726 3.26397 26.9477 2.83785 26.632 2.48299C26.3163 2.12813 25.9193 1.8551 25.475 1.68731C21.2 0.0373073 14.375 0.0498075 14 0.0498075C13.625 0.0498075 6.8 0.0373073 2.525 1.68731C2.08068 1.8551 1.68366 2.12813 1.36799 2.48299C1.05231 2.83785 0.82739 3.26397 0.7125 3.72481C0.3875 4.96231 0 7.23731 0 10.9998C0 14.7623 0.3875 17.0373 0.7125 18.2748C0.82739 18.7356 1.05231 19.1618 1.36799 19.5166C1.68366 19.8715 2.08068 20.1445 2.525 20.3123C6.625 21.8998 13.05 21.9498 13.9125 21.9498H14.0875C14.95 21.9498 21.375 21.8998 25.475 20.3123C25.9193 20.1445 26.3163 19.8715 26.632 19.5166C26.9477 19.1618 27.1726 18.7356 27.2875 18.2748C27.6125 17.0373 28 14.7623 28 10.9998C28 7.23731 27.6125 4.96231 27.2875 3.72481ZM18.275 11.4123L12.275 15.4123C12.1954 15.4709 12.0988 15.5016 12 15.4998C11.9172 15.4967 11.8361 15.4754 11.7625 15.4373C11.6826 15.3957 11.6158 15.3329 11.5694 15.2556C11.5231 15.1784 11.4991 15.0899 11.5 14.9998V6.99981C11.4991 6.90971 11.5231 6.82121 11.5694 6.74401C11.6158 6.66671 11.6826 6.60391 11.7625 6.56231C11.8422 6.51981 11.932 6.49961 12.0222 6.50401C12.1124 6.50841 12.1998 6.53721 12.275 6.58731L18.275 10.5873C18.3447 10.6312 18.4022 10.6921 18.442 10.7642C18.4818 10.8364 18.5027 10.9174 18.5027 10.9998C18.5027 11.0822 18.4818 11.1632 18.442 11.2354C18.4022 11.3075 18.3447 11.3684 18.275 11.4123Z" fill="#D5E27B"/>
</svg>
