<svg width="240" height="25" viewBox="0 0 240 25" fill="none" xmlns="http://www.w3.org/2000/svg">
<g clip-path="url(#clip0_1_580)">
<path d="M25.9313 9.33368H35.9123V11.1952H31.9824V21.6888H29.8283V11.1952H25.9149L25.9313 9.33368ZM35.4848 12.7437H37.3264V14.4734H37.3593C37.425 14.2263 37.5401 13.9957 37.7046 13.7651C37.869 13.5344 38.0664 13.3203 38.313 13.139C38.5432 12.9414 38.8062 12.7931 39.1022 12.6778C39.3818 12.5625 39.6777 12.4966 39.9737 12.4966C40.204 12.4966 40.3684 12.5131 40.4506 12.5131C40.5328 12.5296 40.6314 12.546 40.7137 12.546V14.4404C40.5821 14.4075 40.4341 14.391 40.2862 14.3746C40.1381 14.3581 40.0066 14.3416 39.8586 14.3416C39.5298 14.3416 39.2173 14.4075 38.9214 14.5393C38.6254 14.6711 38.3787 14.8688 38.1486 15.1159C37.9348 15.3794 37.7539 15.6924 37.6224 16.0713C37.4908 16.4502 37.425 16.895 37.425 17.3892V21.6393H35.4519L35.4848 12.7437ZM49.7574 21.6888H47.8171V20.4368H47.7842C47.5375 20.898 47.1759 21.244 46.6989 21.524C46.2221 21.804 45.7288 21.9358 45.2355 21.9358C44.068 21.9358 43.213 21.6558 42.6868 21.0627C42.1607 20.4862 41.8975 19.5966 41.8975 18.427V12.7437H43.8708V18.2293C43.8708 19.0201 44.0187 19.5802 44.3312 19.8932C44.6272 20.2226 45.0547 20.3874 45.5973 20.3874C46.0084 20.3874 46.3537 20.3215 46.6332 20.1896C46.9127 20.0579 47.1429 19.8932 47.3074 19.679C47.4882 19.4649 47.6034 19.2013 47.6856 18.9047C47.7678 18.6082 47.8007 18.2788 47.8007 17.9328V12.7437H49.7739V21.6888H49.7574ZM53.1118 18.8224C53.1775 19.399 53.3913 19.7943 53.7695 20.0414C54.1477 20.2721 54.6081 20.3874 55.1343 20.3874C55.3152 20.3874 55.529 20.3709 55.7591 20.3379C55.9894 20.305 56.2195 20.2556 56.4169 20.1732C56.6306 20.0908 56.7951 19.9755 56.9266 19.8108C57.0581 19.646 57.1239 19.4484 57.1075 19.2013C57.091 18.9542 57.0088 18.74 56.828 18.5753C56.647 18.4105 56.4333 18.2952 56.1702 18.1799C55.9072 18.0811 55.5947 17.9987 55.2494 17.9328C54.9041 17.8669 54.5588 17.7846 54.1971 17.7022C53.8353 17.6199 53.4735 17.521 53.1282 17.4057C52.7829 17.2904 52.487 17.1421 52.2074 16.9279C51.9444 16.7302 51.7141 16.4832 51.5662 16.1701C51.4017 15.8572 51.3195 15.4948 51.3195 15.0335C51.3195 14.5393 51.4346 14.144 51.6813 13.8145C51.9114 13.485 52.2239 13.2214 52.5856 13.0238C52.9474 12.8261 53.3585 12.6778 53.8024 12.5954C54.2464 12.5131 54.6739 12.4801 55.0686 12.4801C55.529 12.4801 55.9729 12.5296 56.384 12.6284C56.7951 12.7272 57.1897 12.8755 57.5185 13.1061C57.8639 13.3203 58.1434 13.6168 58.3571 13.9627C58.5874 14.3087 58.7189 14.737 58.7847 15.2312H56.7293C56.6306 14.7535 56.4169 14.4404 56.088 14.2757C55.7427 14.111 55.3645 14.0286 54.9205 14.0286C54.789 14.0286 54.6081 14.0451 54.4272 14.0615C54.2299 14.0945 54.0655 14.1275 53.8846 14.1934C53.7202 14.2593 53.5722 14.3581 53.4571 14.4734C53.342 14.5888 53.2763 14.7535 53.2763 14.9511C53.2763 15.1982 53.3585 15.3794 53.5229 15.5277C53.6873 15.676 53.9011 15.7913 54.1806 15.9066C54.4437 16.0054 54.7561 16.0878 55.1014 16.1537C55.4468 16.2196 55.8084 16.302 56.1702 16.3843C56.532 16.4667 56.8773 16.5655 57.2226 16.6808C57.5679 16.7962 57.8803 16.9444 58.1434 17.1586C58.4065 17.3563 58.6367 17.6034 58.8011 17.8999C58.9656 18.1964 59.0478 18.5753 59.0478 19.0036C59.0478 19.5307 58.9327 19.9755 58.686 20.3544C58.4393 20.7168 58.127 21.0298 57.7488 21.2604C57.3706 21.491 56.9266 21.6558 56.4662 21.7711C55.9894 21.8699 55.529 21.9358 55.0686 21.9358C54.5094 21.9358 53.9833 21.8699 53.5064 21.7382C53.0296 21.6064 52.6021 21.4087 52.2567 21.1616C51.9114 20.898 51.6319 20.585 51.4346 20.1896C51.2373 19.8108 51.1222 19.3496 51.1058 18.8059H53.0953V18.8224H53.1118ZM59.6068 12.7437H61.1032V10.0421H63.0763V12.7272H64.8522V14.1934H63.0763V18.9707C63.0763 19.1848 63.0928 19.3496 63.1092 19.5143C63.1257 19.6625 63.175 19.7943 63.2243 19.8932C63.2901 19.992 63.3888 20.0743 63.5039 20.1238C63.6354 20.1732 63.7999 20.2062 64.03 20.2062C64.1616 20.2062 64.3096 20.2062 64.4411 20.1896C64.5727 20.1732 64.7207 20.1567 64.8522 20.1238V21.6558C64.6385 21.6888 64.4247 21.7052 64.2109 21.7217C63.9971 21.7546 63.7999 21.7546 63.5696 21.7546C63.0435 21.7546 62.6324 21.7052 62.3199 21.6064C62.0076 21.5076 61.7609 21.3593 61.58 21.1781C61.3991 20.9804 61.284 20.7498 61.2183 20.4697C61.1525 20.1896 61.1196 19.8438 61.1032 19.4813V14.2099H59.6068V12.7107V12.7437ZM66.2334 12.7437H68.0915V13.9627H68.1244C68.4039 13.4356 68.7821 13.0732 69.2754 12.8426C69.7687 12.6119 70.2949 12.4966 70.8868 12.4966C71.5939 12.4966 72.2023 12.6119 72.7284 12.8755C73.2547 13.1226 73.6822 13.4521 74.0272 13.8968C74.3728 14.3252 74.6356 14.8358 74.8 15.4124C74.9644 15.989 75.0635 16.6149 75.0635 17.2574C75.0635 17.8669 74.9813 18.4435 74.833 19.0036C74.6686 19.5637 74.4389 20.0743 74.1262 20.5026C73.8136 20.931 73.4187 21.2769 72.9258 21.5405C72.4325 21.804 71.8734 21.9359 71.2157 21.9358C70.9361 21.9358 70.6402 21.9029 70.3607 21.8535C70.0811 21.804 69.8016 21.7217 69.5385 21.6064C69.2754 21.491 69.0288 21.3428 68.815 21.1616C68.5848 20.9804 68.4039 20.7663 68.2559 20.5356H68.223V24.9999H66.2498V12.7437H66.2334ZM73.1231 17.2245C73.1231 16.8291 73.0738 16.4338 72.9587 16.0549C72.86 15.676 72.6956 15.3465 72.4818 15.05C72.268 14.7535 72.005 14.5228 71.709 14.3416C71.3966 14.1604 71.0348 14.078 70.6402 14.078C69.8181 14.078 69.1932 14.3581 68.7657 14.9346C68.3546 15.5113 68.1409 16.2855 68.1409 17.241C68.1409 17.7022 68.1902 18.114 68.3053 18.4929C68.4203 18.8718 68.5684 19.2013 68.7985 19.4813C69.0123 19.7613 69.2754 19.9755 69.5878 20.1402C69.9003 20.305 70.2456 20.3874 70.6567 20.3874C71.1171 20.3874 71.4788 20.2885 71.7912 20.1073C72.1036 19.9261 72.3503 19.679 72.564 19.399C72.7613 19.1024 72.9094 18.7729 72.9916 18.394C73.0738 17.9987 73.1231 17.6199 73.1231 17.2245ZM76.5923 9.33375H78.5659V11.1952H76.5923V9.33375ZM76.5923 12.7437H78.5659V21.6888H76.5923V12.7437ZM80.3251 9.33375H82.2987V21.6888H80.3251V9.33375ZM88.3163 21.9359C87.6095 21.9359 86.9681 21.8205 86.4088 21.5735C85.8503 21.3263 85.3894 21.0133 84.9952 20.6015C84.6165 20.1896 84.3207 19.679 84.1233 19.1024C83.9266 18.5259 83.8114 17.8834 83.8114 17.208C83.8114 16.5326 83.9097 15.9066 84.1233 15.33C84.3207 14.7535 84.6165 14.2593 84.9952 13.831C85.3732 13.4191 85.8503 13.0896 86.4088 12.859C86.9681 12.6284 87.6095 12.4966 88.3163 12.4966C89.0239 12.4966 89.6646 12.6119 90.2239 12.859C90.7831 13.0896 91.2433 13.4191 91.6382 13.831C92.0162 14.2428 92.3119 14.7535 92.5094 15.33C92.7068 15.9066 92.822 16.5326 92.822 17.208C92.822 17.8999 92.7237 18.5259 92.5094 19.1024C92.2958 19.679 92.0162 20.1732 91.6382 20.6015C91.2602 21.0133 90.7831 21.3428 90.2239 21.5735C89.6646 21.804 89.04 21.9359 88.3163 21.9359ZM88.3163 20.3709C88.7442 20.3709 89.1391 20.2721 89.451 20.0908C89.7798 19.9096 90.0264 19.6625 90.2407 19.366C90.4543 19.0695 90.6018 18.7235 90.7009 18.3611C90.7993 17.9822 90.8492 17.6034 90.8492 17.208C90.8492 16.8291 90.7993 16.4502 90.7009 16.0713C90.6018 15.6924 90.4543 15.3629 90.2407 15.0665C90.0264 14.7699 89.7637 14.5393 89.451 14.3581C89.1222 14.1769 88.7442 14.078 88.3163 14.078C87.8892 14.078 87.4943 14.1769 87.1817 14.3581C86.8528 14.5393 86.6062 14.7864 86.3927 15.0665C86.1791 15.3629 86.0308 15.6924 85.9325 16.0713C85.8334 16.4502 85.7842 16.8291 85.7842 17.208C85.7842 17.6034 85.8334 17.9822 85.9325 18.3611C86.0308 18.74 86.1791 19.0695 86.3927 19.366C86.6062 19.6625 86.8697 19.9096 87.1817 20.0908C87.5112 20.2885 87.8892 20.3709 88.3163 20.3709ZM93.4136 12.7437H94.9101V10.0421H96.8837V12.7272H98.6591V14.1934H96.8837V18.9707C96.8837 19.1848 96.8998 19.3496 96.9167 19.5143C96.9328 19.6625 96.982 19.7943 97.0312 19.8932C97.0973 19.992 97.1956 20.0743 97.3108 20.1238C97.4422 20.1732 97.6066 20.2062 97.8371 20.2062C97.9684 20.2062 98.1167 20.2062 98.2481 20.1897C98.3795 20.1732 98.5277 20.1567 98.6591 20.1238V21.6558C98.4455 21.6888 98.2319 21.7052 98.0184 21.7217C97.804 21.7546 97.6066 21.7546 97.3769 21.7546C96.8506 21.7546 96.4396 21.7052 96.127 21.6064C95.8143 21.5076 95.5677 21.3593 95.3872 21.1781C95.2066 20.9804 95.0914 20.7498 95.0253 20.4697C94.9593 20.1896 94.927 19.8438 94.9101 19.4813V14.2099H93.4136V12.7107V12.7437Z" fill="#D5E27B"/>
<path fill-rule="evenodd" clip-rule="evenodd" d="M14.6015 9.33403H23.6288L16.3281 14.6384L19.1069 23.2376L11.8062 17.9167L4.50542 23.2376L7.30076 14.6384L0 9.31756L9.0273 9.33403L11.8226 0.734924L14.6015 9.33403ZM16.3269 14.6383L16.9517 16.5821L11.8214 17.9165L16.3269 14.6383Z" fill="#D5E27B"/>
<path d="M114.724 0.492615H138.209V24.0219H114.724V0.492615ZM140.164 0.492615H163.649V24.0219H140.164V0.492615ZM165.604 0.492615H189.089V24.0219H165.604V0.492615ZM191.044 0.492615H214.529V24.0219H191.044V0.492615ZM216.483 0.492615H239.969V24.0219H216.483V0.492615Z" fill="#D5E27B"/>
<path d="M239.971 0.492615H216.485V24.0219H239.971V0.492615Z" fill="#5C5958"/>
<path d="M228.252 0.492615H216.485V24.0219H228.252V0.492615Z" fill="#D5E27B"/>
<path d="M126.465 16.3479L130.037 15.4394L131.53 20.0469L126.465 16.3479ZM134.681 10.3953H128.394L126.465 4.46277L124.531 10.3953H118.244L123.334 14.0692L121.4 20.0018L126.49 16.3278L129.621 14.0743L134.681 10.3953ZM151.905 16.3479L155.477 15.4394L156.97 20.0469L151.905 16.3479ZM160.121 10.3953H153.839L151.905 4.46277L149.971 10.3953H143.684L148.774 14.0692L146.84 20.0018L151.93 16.3278L155.061 14.0743L160.121 10.3953ZM177.345 16.3479L180.917 15.4394L182.41 20.0469L177.345 16.3479ZM185.566 10.3953H179.279L177.345 4.46277L175.411 10.3953H169.124L174.214 14.0692L172.28 20.0018L177.37 16.3278L180.501 14.0743L185.566 10.3953ZM202.785 16.3479L206.357 15.4394L207.85 20.0469L202.785 16.3479ZM211.006 10.3953H204.719L202.785 4.46277L200.851 10.3953H194.564L199.654 14.0692L197.72 20.0018L202.81 16.3278L205.941 14.0743L211.006 10.3953ZM228.225 16.3479L231.797 15.4394L233.29 20.0469L228.225 16.3479ZM236.446 10.3953H230.159L228.225 4.46277L226.291 10.3953H220.004L225.094 14.0692L223.16 20.0018L228.25 16.3278L231.381 14.0743L236.446 10.3953Z" fill="#25201F"/>
</g>
<defs>
<clipPath id="clip0_1_580">
<rect width="240" height="25" fill="white"/>
</clipPath>
</defs>
</svg>
